# xmcd
#
# Track frame offsets:
#	150
#	18731
#	36878
#	53520
#	74137
#	90794
#	108484
#	125050
#	141401
#	159765
#	178111
#	182769
#	187426
#	205561
#	223015
#	238619
#	255009
#	272353
#
# Disc length: 3872 seconds
#
# Revision: 0
# Processed by: cddbd v1.5.2PL0 Copyright (c) Steve Scherf et al.
# Submitted via: EasyCDDAExtractor 10.0.3.1
#
DISCID=010f1e12
DTITLE=Various Artist - SAMPLER
DYEAR=1900
DGENRE=
TTITLE0=SANTANA feat. EVERLAST - Put Your Lights On
TTITLE1=TONI BRAXTON - He Wasn't Man Enought
TTITLE2=EIFFEL 65 - Blue
TTITLE3=WHITNEY HOUSTON - If I Told You That
TTITLE4=FRENCH AFFAIR - My Hearts Goes Boom
TTITLE5=HEATHER SMALL - Proud
TTITLE6=HIM - Join Me
TTITLE7=ATC - Around The World
TTITLE8=NATALIA OREIRO - Cambio Dolor
TTITLE9=EROS RAMAZZOTTI - Fuoco Nel Fuoco
TTITLE10=XX - XX
TTITLE11=XX - XX
TTITLE12=LADY PANK - Słońcem Opętani
TTITLE13=KAYAH - Jakajakayah
TTITLE14=MAJA KRAFT - Moje Skrzydła
TTITLE15=W WITRYNACH ODBICIA - Obejrzyj Sobie Wiadomości
TTITLE16=FUNKY FILON - Przesilenie
TTITLE17=PHYSICAL LOVE - Saturday's Baby
EXTD=
EXTT0=
EXTT1=
EXTT2=
EXTT3=
EXTT4=
EXTT5=
EXTT6=
EXTT7=
EXTT8=
EXTT9=
EXTT10=
EXTT11=
EXTT12=
EXTT13=
EXTT14=
EXTT15=
EXTT16=
EXTT17=
PLAYORDER=
